<?xml version="1.0" encoding="iso-8859-1"?>
<!-- Generator: Adobe Illustrator 19.0.0, SVG Export Plug-In . SVG Version: 6.00 Build 0)  -->
<svg xmlns="http://www.w3.org/2000/svg" xmlns:xlink="http://www.w3.org/1999/xlink" version="1.1" id="Layer_1" x="0px" y="0px" viewBox="0 0 475.1 475.1" style="enable-background:new 0 0 475.1 475.1;" xml:space="preserve" width="512px" height="512px">
<g transform="translate(0 -540.36)">
	<g>
		<g>
			<path d="M284.75,827.56l-34.2-43.4l46.2-14.6c4-1.2,6.2-5.4,5-9.4h0c-1.2-3.9-5.5-6.1-9.4-4.9l-47.3,14.9v-46.5     c0-4.1-3.4-7.5-7.5-7.5c-4.1,0-7.5,3.4-7.5,7.5v46.3l-47.3-14.7c-4-1.2-8.2,1-9.4,4.9c-1.2,4,1,8.2,4.9,9.4l46.9,14.6l-35,43.4     c-2.6,3.2-2.1,7.9,1.1,10.5c3.2,2.6,7.9,2.1,10.5-1.1l36-44.7l35.3,44.6c1.5,1.9,3.7,2.8,5.9,2.8c1.6,0,3.3-0.5,4.6-1.6     C286.75,835.46,287.35,830.76,284.75,827.56z" fill="#e84d0c"/>
			<path d="M183.85,938.36c-4.1,0-7.5,3.4-7.5,7.5v54.6H71.85v-54.6c0-4.1-3.4-7.5-7.5-7.5c-4.1,0-7.5,3.4-7.5,7.5v62.1     c0,4.1,3.4,7.5,7.5,7.5h119.5c4.1,0,7.5-3.4,7.5-7.5v-62.1C191.35,941.76,187.95,938.36,183.85,938.36z" fill="#e84d0c"/>
			<path d="M93.35,912.56c0,17,13.8,30.8,30.8,30.8c17.2,0,30.7-13.6,30.8-30.8c0-17.3-13.5-30.8-30.8-30.8     C107.15,881.76,93.35,895.56,93.35,912.56z M139.95,912.56c0,9-6.8,15.8-15.8,15.8c-8.7,0-15.8-7.1-15.8-15.8s7.1-15.8,15.8-15.8     C133.05,896.76,139.95,903.56,139.95,912.56z" fill="#e84d0c"/>
			<path d="M410.75,938.36c-4.1,0-7.5,3.4-7.5,7.5v54.6h-103.7v-54.6c0-4.1-3.4-7.5-7.5-7.5c-4.1,0-7.5,3.4-7.5,7.5v62.1     c0,4.1,3.4,7.5,7.5,7.5h118.7c4.1,0,7.5-3.4,7.5-7.5v-62.1C418.25,941.76,414.85,938.36,410.75,938.36z" fill="#e84d0c"/>
			<path d="M352.15,943.36c16.8,0,30-13.6,30-30.8c0-17.3-13.2-30.8-30-30.8c-17.6,0-31.5,13.5-31.5,30.8     S334.45,943.36,352.15,943.36z M352.15,896.76c8.4,0,15,6.9,15,15.8c0,8.9-6.6,15.8-15,15.8c-9.2,0-16.5-7-16.5-15.8     C335.65,903.66,342.85,896.76,352.15,896.76z" fill="#e84d0c"/>
			<path d="M133.75,837.26v-62.1c0-4.1-3.4-7.5-7.5-7.5c-4.1,0-7.5,3.4-7.5,7.5v54.6H15.05v-54.6c0-4.1-3.4-7.5-7.5-7.5     s-7.5,3.4-7.5,7.5v62.1c0,4.1,3.4,7.5,7.5,7.5h118.7C130.35,844.76,133.75,841.46,133.75,837.26z" fill="#e84d0c"/>
			<path d="M67.25,772.66c17,0,30.8-13.8,30.8-30.8s-13.8-30.8-30.8-30.8c-17.3,0-30.8,13.5-30.8,30.8S49.95,772.66,67.25,772.66z      M67.25,726.16c8.7,0,15.8,7,15.8,15.8c0,8.7-7.1,15.8-15.8,15.8c-9,0-15.8-6.8-15.8-15.8S58.25,726.16,67.25,726.16z" fill="#e84d0c"/>
			<path d="M178.25,674.16h118.6c4.2,0,7.5-3.4,7.6-7.5v-62.1c0-4.1-3.4-7.5-7.5-7.5c-4.1,0-7.5,3.4-7.5,7.5v54.6h-103.7v-54.6     c0-4.1-3.4-7.5-7.5-7.5c-4.1,0-7.5,3.4-7.5,7.5v62.1C170.75,670.76,174.15,674.16,178.25,674.16z" fill="#e84d0c"/>
			<path d="M237.55,601.96c17,0,30.8-13.8,30.8-30.8s-13.8-30.8-30.8-30.8c-17.3,0-30.8,13.5-30.8,30.8S220.25,601.96,237.55,601.96     z M237.55,555.46c8.7,0,15.8,7.1,15.8,15.8s-7.1,15.8-15.8,15.8c-9,0-15.8-6.8-15.8-15.8S228.55,555.46,237.55,555.46z" fill="#e84d0c"/>
			<path d="M467.55,767.66c-4.1,0-7.5,3.4-7.5,7.5v54.6h-103.7v-54.6c0-4.1-3.4-7.5-7.5-7.5c-4.1,0-7.5,3.4-7.5,7.5v62.1     c0,4.1,3.4,7.5,7.5,7.5h118.7c4.1,0,7.5-3.3,7.5-7.5v-62.1C475.05,771.06,471.65,767.66,467.55,767.66z" fill="#e84d0c"/>
			<path d="M408.55,772.66c17,0,30.8-13.8,30.8-30.8s-13.8-30.8-30.8-30.8c-17.3,0-30.8,13.5-30.8,30.8S391.25,772.66,408.55,772.66     z M408.55,726.16c8.7,0,15.8,7,15.8,15.8c0,8.7-7.1,15.8-15.8,15.8c-9,0-15.8-6.8-15.8-15.8S399.55,726.16,408.55,726.16z" fill="#e84d0c"/>
		</g>
	</g>
</g>
<g>
</g>
<g>
</g>
<g>
</g>
<g>
</g>
<g>
</g>
<g>
</g>
<g>
</g>
<g>
</g>
<g>
</g>
<g>
</g>
<g>
</g>
<g>
</g>
<g>
</g>
<g>
</g>
<g>
</g>
</svg>
