<?xml version="1.0" encoding="iso-8859-1"?>
<!-- Generator: Adobe Illustrator 19.0.0, SVG Export Plug-In . SVG Version: 6.00 Build 0)  -->
<svg xmlns="http://www.w3.org/2000/svg" xmlns:xlink="http://www.w3.org/1999/xlink" version="1.1" id="Capa_1" x="0px" y="0px" viewBox="0 0 502.664 502.664" style="enable-background:new 0 0 502.664 502.664;" xml:space="preserve" width="512px" height="512px">
<g>
	<g>
		<g>
			<rect x="64.302" y="88.656" width="244.872" height="33.672" fill="#4c6797"/>
			<path d="M379.516,182.597V9.081H0v422.334h220.13c28.754,37.706,74.031,62.167,125.111,62.167     c86.93,0,157.424-70.493,157.424-157.424C502.664,261.006,449.967,198.257,379.516,182.597z M24.483,407.019     c0-22.261,0-351.172,0-373.433c22.002,0,308.548,0,330.594,0c0,9.383,0,73.254,0,145.646c-3.257-0.194-6.514-0.496-9.836-0.496     c-31.083,0-59.988,9.124-84.406,24.699H64.302v33.672h158.675c-18.4,22.671-30.566,50.562-34.06,81.106H64.302v33.694h124.312     c1.963,19.694,7.658,38.245,16.2,55.135C122.932,407.019,36.196,407.019,24.483,407.019z M436.442,357.644     c-23.124,0-69.717,0-69.717,0s0,54.186-0.022,74.786h-42.969c0.022-20.6,0.022-74.786,0.022-74.786s-46.636,0-69.717,0.043     v-42.926c23.081-0.108,69.717-0.108,69.717-0.108s-0.022-54.229,0-74.764h42.947c-0.022,20.535,0,74.764,0,74.764     s46.593,0,69.717,0L436.442,357.644L436.442,357.644z" fill="#4c6797"/>
		</g>
	</g>
	<g>
	</g>
	<g>
	</g>
	<g>
	</g>
	<g>
	</g>
	<g>
	</g>
	<g>
	</g>
	<g>
	</g>
	<g>
	</g>
	<g>
	</g>
	<g>
	</g>
	<g>
	</g>
	<g>
	</g>
	<g>
	</g>
	<g>
	</g>
	<g>
	</g>
</g>
<g>
</g>
<g>
</g>
<g>
</g>
<g>
</g>
<g>
</g>
<g>
</g>
<g>
</g>
<g>
</g>
<g>
</g>
<g>
</g>
<g>
</g>
<g>
</g>
<g>
</g>
<g>
</g>
<g>
</g>
</svg>
